#!OML:ASF E:\id_vita\Project 1\Capture day 1\Session 1\Male1.ASF
:FULLY-SPECIFIED
:DEGREES
1475
root 19.3067 2.81514 4.63381 160.988 86.101 188.819
lowerback 42.6139 -0.612162 0.0810732
upperback 18.1504 2.52269 -0.675584
thorax 0.147393 2.71323 -1.61716
lowerneck -7.07343 14.0837 15.6652
upperneck -1.52712 18.0657 -15.4886
head 3.53574 8.79175 -5.82379
rclavicle -6.8208e-015 -1.87727e-014
rhumerus 67.601 33.1189 10.0424
rradius 60.5773
rwrist -11.8041
rhand -3.37681 -320.358
rfingers 7.12502
rthumb 22.3523 10.9149
lclavicle -6.8208e-015 -1.87727e-014
lhumerus 77.3616 -28.8695 -3.07367
lradius 48.9115
lwrist 30.3054
lhand 9.39476 46.6169
lfingers 7.12502
lthumb 34.5521 73.2763
rfemur -105.965 -15.8264 41.4037
rtibia 95.3014
rfoot 0.142959 16.9362
rtoes -18.4818
lfemur -99.4318 15.0536 -37.8559
ltibia 76.6074
lfoot 34.0534 3.23662
ltoes 36.6576
1476
root 19.3075 2.81454 4.6343 160.732 86.0418 188.548
lowerback 42.6063 -0.619292 0.116811
upperback 18.086 2.51406 -0.697488
thorax 0.0783431 2.70728 -1.65853
lowerneck -7.08506 14.0955 15.663
upperneck -1.40825 18.0835 -15.3988
head 3.56552 8.7985 -5.79017
rclavicle -5.7896e-015 2.30093e-014
rhumerus 67.5516 33.2636 9.99798
rradius 60.5323
rwrist -11.8045
rhand -3.37842 -320.325
rfingers 7.12502
rthumb 22.3507 10.9475
lclavicle -5.7896e-015 2.30093e-014
lhumerus 77.4381 -28.9874 -3.1063
lradius 48.8519
lwrist 30.2759
lhand 9.34849 46.644
lfingers 7.12502
lthumb 34.5081 73.3135
rfemur -106.02 -15.8682 41.3721
rtibia 95.3264
rfoot 0.131848 16.9383
rtoes -18.4928
lfemur -99.4459 15.0251 -37.9431
ltibia 76.6053
lfoot 34.0584 3.11848
ltoes 36.4881
1477
root 19.3083 2.81401 4.6346 160.683 85.9933 188.501
lowerback 42.602 -0.629465 0.157394
upperback 18.0373 2.50727 -0.71268
thorax 0.0259407 2.70364 -1.6952
lowerneck -7.12494 14.1109 15.6585
upperneck -1.28767 18.1038 -15.3242
head 3.60214 8.80527 -5.75841
rclavicle -8.57259e-016 1.4064e-014
rhumerus 67.5091 33.3875 9.96137
rradius 60.4888
rwrist -11.787
rhand -3.42204 -320.328
rfingers 7.12502
rthumb 22.3089 10.9394
lclavicle -8.57259e-016 1.4064e-014
lhumerus 77.5134 -29.0785 -3.15226
lradius 48.7869
lwrist 30.2437
lhand 9.27592 46.6332
lfingers 7.12502
lthumb 34.4393 73.3183
rfemur -106.053 -15.9061 41.3499
rtibia 95.3466
rfoot 0.105858 16.9601
rtoes -18.608
lfemur -99.4437 15.0008 -37.9889
ltibia 76.6091
lfoot 34.0641 2.96527
ltoes 36.3053
1478
root 19.3086 2.81361 4.63462 160.769 85.9727 188.6
lowerback 42.5972 -0.635576 0.202844
upperback 18.002 2.50967 -0.723478
thorax -0.0111924 2.70565 -1.73217
lowerneck -7.131 14.1201 15.6873
upperneck -1.21692 18.1177 -15.3185
head 3.62824 8.81008 -5.75607
rclavicle 3.61664e-014 -3.21534e-014
rhumerus 67.4779 33.4979 9.93787
rradius 60.4395
rwrist -11.7335
rhand -3.54195 -320.395
rfingers 7.12502
rthumb 22.1938 10.8588
lclavicle 3.61664e-014 -3.21534e-014
lhumerus 77.6 -29.1416 -3.23354
lradius 48.7221
lwrist 30.2155
lhand 9.2374 46.586
lfingers 7.12502
lthumb 34.4027 73.2795
rfemur -106.06 -15.9216 41.3445
rtibia 95.3533
rfoot 0.12783 17.0028
rtoes -19.0075
lfemur -99.4282 14.9913 -37.9862
ltibia 76.615
lfoot 34.0613 2.83713
ltoes 36.1512
1479
root 19.3084 2.81323 4.63447 160.754 85.9763 188.603
lowerback 42.5885 -0.632782 0.245434
upperback 17.9693 2.52141 -0.738966
thorax -0.0438376 2.71243 -1.7756
lowerneck -7.06458 14.1196 15.7751
upperneck -1.20734 18.123 -15.3937
head 3.63756 8.81306 -5.79339
rclavicle 2.46741e-014 -9.91439e-015
rhumerus 67.458 33.6112 9.93241
rradius 60.3879
rwrist -11.6554
rhand -3.73474 -320.545
rfingers 7.12502
rthumb 22.0087 10.687
lclavicle 2.46741e-014 -9.91439e-015
lhumerus 77.7123 -29.1923 -3.36752
lradius 48.6659
lwrist 30.199
lhand 9.25678 46.5227
lfingers 7.12502
lthumb 34.4211 73.212
rfemur -106.053 -15.912 41.3453
rtibia 95.3484
rfoot 0.220551 17.0653
rtoes -19.5908
lfemur -99.408 14.9969 -37.966
ltibia 76.6193
lfoot 34.0467 2.78188
ltoes 36.0788
1480
root 19.3084 2.81273 4.63425 160.248 85.9816 188.111
lowerback 42.576 -0.61904 0.258853
upperback 17.9225 2.53113 -0.770722
thorax -0.0912051 2.71577 -1.82129
lowerneck -6.90169 14.1151 15.9368
upperneck -1.23509 18.1298 -15.5248
head 3.63343 8.81982 -5.86461
rclavicle -1.50579e-014 3.8763e-015
rhumerus 67.4626 33.7504 9.94536
rradius 60.3397
rwrist -11.5857
rhand -3.9372 -320.746
rfingers 7.12502
rthumb 21.8143 10.4634
lclavicle -1.50579e-014 3.8763e-015
lhumerus 77.8388 -29.2676 -3.54712
lradius 48.6217
lwrist 30.1879
lhand 9.31686 46.467
lfingers 7.12502
lthumb 34.4781 73.1434
rfemur -106.054 -15.8934 41.3177
rtibia 95.3443
rfoot 0.326713 17.1398
rtoes -20.0412
lfemur -99.3896 15.0094 -37.9837
ltibia 76.6219
lfoot 34.0221 2.7861
ltoes 36.0816
1481
root 19.3092 2.81207 4.634 159.062 85.9655 186.928
lowerback 42.5595 -0.598533 0.216439
upperback 17.8498 2.52077 -0.822961
thorax -0.167353 2.70393 -1.85448
lowerneck -6.62929 14.1156 16.1645
upperneck -1.27811 18.1526 -15.671
head 3.61727 8.8382 -5.95497
rclavicle 2.28851e-014 -3.04638e-014
rhumerus 67.5178 33.9279 9.96474
rradius 60.2907
rwrist -11.5408
rhand -4.06735 -320.924
rfingers 7.12502
rthumb 21.6893 10.2714
lclavicle 2.28851e-014 -3.04638e-014
lhumerus 77.9341 -29.3992 -3.73517
lradius 48.5836
lwrist 30.1673
lhand 9.40345 46.4268
lfingers 7.12502
lthumb 34.5603 73.0844
rfemur -106.079 -15.8866 41.2368
rtibia 95.3539
rfoot 0.374881 17.2109
rtoes -20.1603
lfemur -99.3773 15.0169 -38.0747
ltibia 76.6251
lfoot 33.9933 2.7944
ltoes 36.0984
1482
root 19.3107 2.81129 4.63374 157.538 85.9294 185.401
lowerback 42.5473 -0.579578 0.131258
upperback 17.7563 2.48692 -0.888049
thorax -0.268959 2.67623 -1.87249
lowerneck -6.29769 14.1257 16.4042
upperneck -1.31613 18.1939 -15.7736
head 3.59221 8.86849 -6.0355
rclavicle -1.20513e-014 2.83268e-014
rhumerus 67.6195 34.1285 9.96481
rradius 60.2296
rwrist -11.5077
rhand -4.06674 -321.011
rfingers 7.12502
rthumb 21.6899 10.1841
lclavicle -1.20513e-014 2.83268e-014
lhumerus 77.9663 -29.5812 -3.88552
lradius 48.5428
lwrist 30.1192
lhand 9.52299 46.3985
lfingers 7.12502
lthumb 34.6738 73.0301
rfemur -106.118 -15.8978 41.1205
rtibia 95.3795
rfoot 0.341081 17.262
rtoes -19.9323
lfemur -99.3693 15.018 -38.2107
ltibia 76.6312
lfoot 33.964 2.78548
ltoes 36.0958
1483
root 19.3123 2.81054 4.63337 156.171 85.8956 184.032
lowerback 42.5461 -0.565926 0.0448717
upperback 17.6615 2.44616 -0.951229
thorax -0.37519 2.64489 -1.88574
lowerneck -6.01603 14.1439 16.5757
upperneck -1.32267 18.2429 -15.7818
head 3.56901 8.90179 -6.07367
rclavicle 2.68359e-015 -3.23025e-015
rhumerus 67.7261 34.317 9.9327
rradius 60.1485
rwrist -11.459
rhand -3.93749 -320.976
rfingers 7.12502
rthumb 21.814 10.2329
lclavicle 2.68359e-015 -3.23025e-015
lhumerus 77.9521 -29.7724 -3.97811
lradius 48.4954
lwrist 30.0412
lhand 9.65291 46.3726
lfingers 7.12502
lthumb 34.7971 72.9758
rfemur -106.15 -15.9161 41.0108
rtibia 95.415
rfoot 0.254868 17.2805
rtoes -19.5658
lfemur -99.3655 15.0229 -38.3381
ltibia 76.6417
lfoot 33.9407 2.77845
ltoes 36.0946
1484
root 19.3139 2.8099 4.63284 155.206 85.877 183.066
lowerback 42.5446 -0.556558 -0.00943666
upperback 17.5911 2.41857 -0.996211
thorax -0.453667 2.62348 -1.89938
lowerneck -5.8942 14.1655 16.6136
upperneck -1.27448 18.2836 -15.6864
head 3.56277 8.92616 -6.05182
rclavicle 2.13197e-014 -1.95306e-014
rhumerus 67.7911 34.4571 9.88729
rradius 60.0487
rwrist -11.3839
rhand -3.76617 -320.832
rfingers 7.12502
rthumb 21.9785 10.3967
lclavicle 2.13197e-014 -1.95306e-014
lhumerus 77.9428 -29.9188 -4.02469
lradius 48.4409
lwrist 29.9567
lhand 9.74656 46.3336
lfingers 7.12502
lthumb 34.8859 72.9162
rfemur -106.17 -15.931 40.9359
rtibia 95.4532
rfoot 0.160765 17.264
rtoes -19.3539
lfemur -99.3715 15.0354 -38.4333
ltibia 76.6558
lfoot 33.9351 2.78589
ltoes 36.1211
1485
root 19.3154 2.80935 4.63225 154.634 85.8661 182.487
lowerback 42.5293 -0.549941 -0.0217737
upperback 17.558 2.41283 -1.01515
thorax -0.486349 2.61755 -1.91228
lowerneck -5.95382 14.1834 16.5201
upperneck -1.17866 18.3043 -15.5291
head 3.57795 8.93475 -5.98293
rclavicle 1.20265e-014 1.88845e-015
rhumerus 67.7938 34.5403 9.85893
rradius 59.9401
rwrist -11.3175
rhand -3.67851 -320.625
rfingers 7.12502
rthumb 22.0626 10.6134
lclavicle 1.20265e-014 1.88845e-015
lhumerus 77.9807 -29.9975 -4.04142
lradius 48.3758
lwrist 29.8817
lhand 9.80369 46.2753
lfingers 7.12502
lthumb 34.9401 72.8453
rfemur -106.189 -15.9429 40.8947
rtibia 95.49
rfoot 0.0857483 17.2224
rtoes -19.3155
lfemur -99.3883 15.0474 -38.5022
ltibia 76.6734
lfoot 33.9474 2.81324
ltoes 36.2098
1486
root 19.3172 2.8088 4.63173 154.365 85.8562 182.209
lowerback 42.5001 -0.543893 0.000156457
upperback 17.5469 2.42513 -1.01253
thorax -0.49027 2.62347 -1.9247
lowerneck -6.08779 14.1896 16.373
upperneck -1.07893 18.3043 -15.3818
head 3.59945 8.9306 -5.90751
rclavicle -7.00716e-015 -9.64106e-015
rhumerus 67.7557 34.6027 9.8663
rradius 59.8358
rwrist -11.321
rhand -3.75578 -320.421
rfingers 7.12502
rthumb 21.9885 10.8092
lclavicle -7.00716e-015 -9.64106e-015
lhumerus 78.0644 -30.0422 -4.0326
lradius 48.2975
lwrist 29.8001
lhand 9.86712 46.208
lfingers 7.12502
lthumb 35.0003 72.764
rfemur -106.21 -15.9523 40.8769
rtibia 95.522
rfoot 0.0260964 17.1721
rtoes -19.2659
lfemur -99.4126 15.0534 -38.5488
ltibia 76.6956
lfoot 33.9668 2.86905
ltoes 36.4181
1487
root 19.319 2.80823 4.6313 154.31 85.8587 182.141
lowerback 42.463 -0.533046 0.0374832
upperback 17.5331 2.44836 -0.998546
thorax -0.495014 2.63442 -1.93667
lowerneck -6.1578 14.1826 16.2622
upperneck -1.02036 18.2939 -15.3066
head 3.60837 8.92323 -5.86536
rclavicle 9.14409e-015 -1.51573e-014
rhumerus 67.72 34.6857 9.90613
rradius 59.7426
rwrist -11.4166
rhand -3.99617 -320.277
rfingers 7.12502
rthumb 21.7576 10.926
lclavicle 9.14409e-015 -1.51573e-014
lhumerus 78.1517 -30.1004 -3.99418
lradius 48.2094
lwrist 29.6868
lhand 9.97329 46.1394
lfingers 7.12502
lthumb 35.101 72.6718
rfemur -106.229 -15.9474 40.8829
rtibia 95.5435
rfoot -0.0248132 17.131
rtoes -19.1435
lfemur -99.4464 15.0617 -38.5664
ltibia 76.724
lfoot 33.9815 2.94678
ltoes 36.7513
1488
root 19.3206 2.80774 4.63093 154.262 85.8858 182.073
lowerback 42.4182 -0.511253 0.0603858
upperback 17.5063 2.4749 -0.985242
thorax -0.512298 2.64407 -1.94357
lowerneck -6.09858 14.1715 16.2375
upperneck -1.02265 18.29 -15.3273
head 3.59797 8.92308 -5.87278
rclavicle 1.81888e-014 -2.20154e-014
rhumerus 67.7179 34.7949 9.95341
rradius 59.6503
rwrist -11.5528
rhand -4.33814 -320.202
rfingers 7.12502
rthumb 21.4292 10.9628
lclavicle 1.81888e-014 -2.20154e-014
lhumerus 78.1935 -30.1866 -3.92255
lradius 48.1168
lwrist 29.5347
lhand 10.1276 46.0655
lfingers 7.12502
lthumb 35.2473 72.5634
rfemur -106.247 -15.9156 40.908
rtibia 95.5497
rfoot -0.0267351 17.1148
rtoes -19.0879
lfemur -99.4942 15.084 -38.5629
ltibia 76.7569
lfoot 33.9804 3.01904
ltoes 37.1301
1489
root 19.3218 2.80746 4.6305 154.012 85.9324 181.794
lowerback 42.3643 -0.47851 0.0536951
upperback 17.4738 2.50024 -0.981394
thorax -0.533624 2.65059 -1.94498
lowerneck -5.97273 14.1703 16.2714
upperneck -1.04857 18.305 -15.3956
head 3.58327 8.93422 -5.90477
rclavicle -1.03865e-014 1.20762e-014
rhumerus 67.7415 34.9046 9.97998
rradius 59.5395
rwrist -11.6513
rhand -4.70775 -320.153
rfingers 7.12502
rthumb 21.0742 10.9718
lclavicle -1.03865e-014 1.20762e-014
lhumerus 78.186 -30.279 -3.83532
lradius 48.0255
lwrist 29.3703
lhand 10.2805 45.9792
lfingers 7.12502
lthumb 35.3924 72.4428
rfemur -106.266 -15.8621 40.9378
rtibia 95.5411
rfoot 0.0390473 17.1301
rtoes -19.2461
lfemur -99.553 15.1213 -38.5605
ltibia 76.7912
lfoot 33.9635 3.06134
ltoes 37.4575
